<?xml version="1.0" encoding="UTF-8" standalone="no"?>
<!DOCTYPE svg PUBLIC "-//W3C//DTD SVG 1.1//EN" "http://www.w3.org/Graphics/SVG/1.1/DTD/svg11.dtd">
<svg width="100%" height="100%" viewBox="0 0 294 575" version="1.1" xmlns="http://www.w3.org/2000/svg" xmlns:xlink="http://www.w3.org/1999/xlink" xml:space="preserve" xmlns:serif="http://www.serif.com/" style="fill-rule:evenodd;clip-rule:evenodd;stroke-linejoin:round;stroke-miterlimit:2;">
    <g transform="matrix(1,0,0,1,-147.138,-3.94354)">
        <g transform="matrix(0.983499,0,0,0.98563,7.27603,3.94354)">
            <path d="M394.631,0L188.521,0C162.989,0 142.209,20.779 142.209,46.312L142.209,536.839C142.209,562.371 162.989,583.151 188.521,583.151L394.631,583.151C420.162,583.151 440.942,562.372 440.942,536.839L440.942,46.312C440.941,20.779 420.162,0 394.631,0ZM426.598,536.839C426.598,554.463 412.254,568.807 394.631,568.807L188.521,568.807C170.897,568.807 156.553,554.463 156.553,536.839L156.553,46.312C156.553,28.688 170.897,14.344 188.521,14.344L394.631,14.344C412.254,14.344 426.598,28.688 426.598,46.312L426.598,536.839Z" style="fill:rgb(255,180,0);fill-rule:nonzero;"/>
            <path d="M407.693,78.049L171.317,78.049C168.678,78.049 166.536,80.191 166.536,82.83L166.536,474.223C166.536,476.863 168.678,479.004 171.317,479.004L407.693,479.004C410.332,479.004 412.474,476.862 412.474,474.223L412.474,82.831C412.475,80.182 410.332,78.049 407.693,78.049ZM402.912,469.433L176.099,469.433L176.099,87.612L402.912,87.612L402.912,469.433Z" style="fill:rgb(255,180,0);fill-rule:nonzero;"/>
            <circle cx="253.096" cy="54.774" r="6.531" style="fill:rgb(255,180,0);"/>
            <path d="M272.001,59.556L311.15,59.556C313.789,59.556 315.931,57.414 315.931,54.775C315.931,52.135 313.788,49.994 311.15,49.994L272.001,49.994C269.362,49.994 267.22,52.136 267.22,54.775C267.22,57.414 269.362,59.556 272.001,59.556Z" style="fill:rgb(255,180,0);fill-rule:nonzero;"/>
            <path d="M369.031,532.546L366.039,532.546L366.039,530.738L360.875,533.721L366.039,536.704L366.039,534.944L369.021,534.944C374.158,534.944 375.648,535.231 375.648,537.173C375.648,539.229 375.017,539.401 371.804,539.401L366.745,539.401C366.085,539.401 365.55,539.937 365.55,540.596C365.55,541.256 366.085,541.791 366.745,541.791L371.804,541.791C374.435,541.791 378.038,541.791 378.038,537.173C378.039,532.555 373.469,532.546 369.031,532.546Z" style="fill:rgb(255,180,0);fill-rule:nonzero;"/>
            <path d="M218.03,528.146L201.965,528.146C201.305,528.146 200.77,528.682 200.77,529.341L200.77,544.995C200.77,545.654 201.306,546.19 201.965,546.19L218.03,546.19C218.69,546.19 219.225,545.654 219.225,544.995L219.225,529.341C219.226,528.683 218.69,528.146 218.03,528.146ZM216.835,543.801L203.161,543.801L203.161,536.763L209.376,536.763L209.376,530.547L216.825,530.547L216.825,543.801L216.835,543.801Z" style="fill:rgb(255,180,0);fill-rule:nonzero;"/>
            <path d="M289.147,528.414C288.668,528.032 288.009,528.06 287.569,528.472L279.259,536.294C278.905,536.629 278.791,537.146 278.972,537.605C279.144,538.064 279.594,538.36 280.081,538.36L281.573,538.36L281.573,545.484C281.573,546.144 282.108,546.679 282.768,546.679L286.679,546.679C287.339,546.679 287.874,546.144 287.874,545.484L287.874,541.172L289.155,541.172L289.155,545.484C289.155,546.144 289.691,546.679 290.35,546.679L295.122,546.679C295.782,546.679 296.317,546.144 296.317,545.484L296.317,538.599L298.297,538.599C298.803,538.599 299.252,538.284 299.424,537.805C299.596,537.327 299.444,536.801 299.051,536.476L289.147,528.414ZM293.928,537.413L293.928,544.298L291.547,544.298L291.547,539.986C291.547,539.326 291.012,538.791 290.352,538.791L286.681,538.791C286.021,538.791 285.486,539.326 285.486,539.986L285.486,544.298L283.965,544.298L283.965,537.174C283.965,536.61 283.582,536.141 283.056,536.017L288.45,530.939L294.962,536.237C294.377,536.304 293.928,536.811 293.928,537.413Z" style="fill:rgb(255,180,0);fill-rule:nonzero;"/>
        </g>
    </g>
</svg>
