<?xml version="1.0" encoding="UTF-8" standalone="no"?>
<!DOCTYPE svg PUBLIC "-//W3C//DTD SVG 1.1//EN" "http://www.w3.org/Graphics/SVG/1.1/DTD/svg11.dtd">
<svg width="100%" height="100%" viewBox="0 0 125 50" version="1.1" xmlns="http://www.w3.org/2000/svg" xmlns:xlink="http://www.w3.org/1999/xlink" xml:space="preserve" xmlns:serif="http://www.serif.com/" style="fill-rule:evenodd;clip-rule:evenodd;stroke-linejoin:round;stroke-miterlimit:2;">
    <g id="Artboard1" transform="matrix(0.856164,0,0,0.892857,0,0)">
        <rect x="0" y="0" width="146" height="56" style="fill:none;"/>
        <g transform="matrix(1,0,0,1.12,-10.9351,-3.43168)">
            <g transform="matrix(1.57801,0,0,1.35103,9.46928,-0.553649)">
                <circle cx="6.563" cy="7.552" r="3.958"/>
            </g>
            <g transform="matrix(1.57801,0,0,1.35103,9.46928,17.9594)">
                <circle cx="6.563" cy="7.552" r="3.958"/>
            </g>
            <g transform="matrix(1.57801,0,0,1.35103,9.46928,36.4725)">
                <circle cx="6.563" cy="7.552" r="3.958"/>
            </g>
            <g transform="matrix(1.57801,0,0,1.35103,30.906,-0.553649)">
                <circle cx="6.563" cy="7.552" r="3.958"/>
            </g>
            <g transform="matrix(1.57801,0,0,1.35103,30.906,17.9594)">
                <circle cx="6.563" cy="7.552" r="3.958"/>
            </g>
            <g transform="matrix(1.57801,0,0,1.35103,30.906,36.4725)">
                <circle cx="6.563" cy="7.552" r="3.958"/>
            </g>
            <g transform="matrix(1.57801,0,0,1.35103,52.3426,-0.553649)">
                <circle cx="6.563" cy="7.552" r="3.958"/>
            </g>
            <g transform="matrix(1.57801,0,0,1.35103,52.3426,17.9594)">
                <circle cx="6.563" cy="7.552" r="3.958"/>
            </g>
            <g transform="matrix(1.57801,0,0,1.35103,52.3426,36.4725)">
                <circle cx="6.563" cy="7.552" r="3.958"/>
            </g>
            <g transform="matrix(1.57801,0,0,1.35103,73.7793,-0.553649)">
                <circle cx="6.563" cy="7.552" r="3.958"/>
            </g>
            <g transform="matrix(1.57801,0,0,1.35103,73.7793,17.9594)">
                <circle cx="6.563" cy="7.552" r="3.958"/>
            </g>
            <g transform="matrix(1.57801,0,0,1.35103,73.7793,36.4725)">
                <circle cx="6.563" cy="7.552" r="3.958"/>
            </g>
            <g transform="matrix(1.57801,0,0,1.35103,95.216,-0.553649)">
                <circle cx="6.563" cy="7.552" r="3.958"/>
            </g>
            <g transform="matrix(1.57801,0,0,1.35103,95.216,17.9594)">
                <circle cx="6.563" cy="7.552" r="3.958"/>
            </g>
            <g transform="matrix(1.57801,0,0,1.35103,95.216,36.4725)">
                <circle cx="6.563" cy="7.552" r="3.958"/>
            </g>
            <g transform="matrix(1.57801,0,0,1.35103,116.653,-0.553649)">
                <circle cx="6.563" cy="7.552" r="3.958"/>
            </g>
            <g transform="matrix(1.57801,0,0,1.35103,116.653,17.9594)">
                <circle cx="6.563" cy="7.552" r="3.958"/>
            </g>
            <g transform="matrix(1.57801,0,0,1.35103,116.653,36.4725)">
                <circle cx="6.563" cy="7.552" r="3.958"/>
            </g>
            <g transform="matrix(1.57801,0,0,1.35103,138.089,-0.553649)">
                <circle cx="6.563" cy="7.552" r="3.958"/>
            </g>
            <g transform="matrix(1.57801,0,0,1.35103,138.089,17.9594)">
                <circle cx="6.563" cy="7.552" r="3.958"/>
            </g>
            <g transform="matrix(1.57801,0,0,1.35103,138.089,36.4725)">
                <circle cx="6.563" cy="7.552" r="3.958"/>
            </g>
        </g>
    </g>
</svg>
