<?xml version="1.0" encoding="UTF-8" standalone="no"?>
<!DOCTYPE svg PUBLIC "-//W3C//DTD SVG 1.1//EN" "http://www.w3.org/Graphics/SVG/1.1/DTD/svg11.dtd">
<svg width="100%" height="100%" viewBox="0 0 488 491" version="1.1" xmlns="http://www.w3.org/2000/svg" xmlns:xlink="http://www.w3.org/1999/xlink" xml:space="preserve" xmlns:serif="http://www.serif.com/" style="fill-rule:evenodd;clip-rule:evenodd;stroke-linejoin:round;stroke-miterlimit:2;">
    <g transform="matrix(1,0,0,1,-8.95727,-6.81762)">
        <g transform="matrix(1,0,0,1,1,0)">
            <g transform="matrix(0.968722,0,0,0.973795,8.90952,6.81179)">
                <path d="M437.155,151.116L435.476,151.116L435.476,8.427C435.476,3.391 432.119,0.034 427.083,0.034L259.673,0.034C258.71,-0.051 257.768,0.059 256.868,0.343C255.738,0.666 254.773,1.247 253.837,2.086C253.668,2.234 253.501,2.389 253.339,2.552L202.978,52.913C202.815,53.076 202.661,53.242 202.512,53.411C201.673,54.347 201.092,55.312 200.769,56.442C200.484,57.342 200.375,58.284 200.46,59.247L200.46,151.116L175.28,151.116L175.28,92.362C175.28,68.86 156.814,50.395 133.313,50.395L82.951,50.395C59.449,50.395 40.984,68.861 40.984,92.362L40.984,153.152C17.005,162.936 -0.983,189.514 -0.983,218.264L-0.983,438.172C-0.983,474.264 28.394,503.641 64.486,503.641L437.155,503.641C473.247,503.641 502.624,474.264 502.624,439.011L502.624,216.585C502.624,180.493 473.246,151.116 437.155,151.116ZM250.82,28.572L250.82,50.395L228.997,50.395L250.82,28.572ZM217.246,67.182L259.213,67.182C264.249,67.182 267.606,63.825 267.606,58.789L267.606,16.821L418.688,16.821L418.688,151.116L217.246,151.116L217.246,67.182ZM57.771,92.362C57.771,78.093 68.682,67.182 82.951,67.182L133.312,67.182C147.581,67.182 158.492,78.093 158.492,92.362L158.492,428.1C158.492,442.369 147.581,453.28 133.312,453.28L82.951,453.28C68.682,453.28 57.771,442.369 57.771,428.1L57.771,92.362ZM486.676,438.172C486.676,465.031 464.853,486.854 437.994,486.854L64.486,486.854C37.627,486.854 15.804,465.031 15.804,438.172L15.804,218.263C15.804,199.797 25.876,181.332 40.984,172.099L40.984,428.099C40.984,451.601 59.45,470.066 82.951,470.066L133.312,470.066C156.814,470.066 175.279,451.6 175.279,428.099L175.279,167.903L437.994,167.903C464.853,167.903 486.676,189.726 486.676,216.585L486.676,438.172Z" style="fill:rgb(255,180,0);fill-rule:nonzero;"/>
                <path d="M309.574,58.788L351.541,58.788C356.577,58.788 359.934,55.431 359.934,50.395C359.934,45.359 356.577,42.002 351.541,42.002L309.574,42.002C304.538,42.002 301.181,45.359 301.181,50.395C301.181,55.431 304.538,58.788 309.574,58.788Z" style="fill:rgb(255,180,0);fill-rule:nonzero;"/>
                <path d="M276.001,117.542L250.821,117.542C245.785,117.542 242.428,120.899 242.428,125.935C242.428,130.971 245.785,134.328 250.821,134.328L276.001,134.328C281.037,134.328 284.394,130.971 284.394,125.935C284.394,120.899 281.037,117.542 276.001,117.542Z" style="fill:rgb(255,180,0);fill-rule:nonzero;"/>
                <path d="M385.115,117.542L309.574,117.542C304.538,117.542 301.181,120.899 301.181,125.935C301.181,130.971 304.538,134.328 309.574,134.328L385.115,134.328C390.151,134.328 393.508,130.971 393.508,125.935C393.508,120.899 390.151,117.542 385.115,117.542Z" style="fill:rgb(255,180,0);fill-rule:nonzero;"/>
                <path d="M385.115,83.968L359.935,83.968C354.899,83.968 351.542,87.325 351.542,92.361C351.542,97.397 354.899,100.754 359.935,100.754L385.115,100.754C390.151,100.754 393.508,97.397 393.508,92.361C393.508,87.325 390.151,83.968 385.115,83.968Z" style="fill:rgb(255,180,0);fill-rule:nonzero;"/>
                <path d="M250.82,100.755L326.361,100.755C331.397,100.755 334.754,97.398 334.754,92.362C334.754,87.326 331.397,83.969 326.361,83.969L250.82,83.969C245.784,83.969 242.427,87.326 242.427,92.362C242.427,97.398 245.784,100.755 250.82,100.755Z" style="fill:rgb(255,180,0);fill-rule:nonzero;"/>
                <path d="M418.689,184.69L217.246,184.69C212.21,184.69 208.853,188.047 208.853,193.083L208.853,243.444C208.853,248.48 212.21,251.837 217.246,251.837L418.689,251.837C423.725,251.837 427.082,248.48 427.082,243.444L427.082,193.083C427.083,188.047 423.725,184.69 418.689,184.69ZM410.296,235.05L225.64,235.05L225.64,201.476L410.296,201.476L410.296,235.05Z" style="fill:rgb(255,180,0);fill-rule:nonzero;"/>
                <path d="M267.607,268.624L234.033,268.624C228.997,268.624 225.64,271.981 225.64,277.017L225.64,310.591C225.64,315.627 228.997,318.984 234.033,318.984L267.607,318.984C272.643,318.984 276,315.627 276,310.591L276,277.017C276.001,271.982 272.643,268.624 267.607,268.624ZM259.214,302.198L242.427,302.198L242.427,285.411L259.214,285.411L259.214,302.198Z" style="fill:rgb(255,180,0);fill-rule:nonzero;"/>
                <path d="M334.755,268.624L301.181,268.624C296.145,268.624 292.788,271.981 292.788,277.017L292.788,310.591C292.788,315.627 296.145,318.984 301.181,318.984L334.755,318.984C339.791,318.984 343.148,315.627 343.148,310.591L343.148,277.017C343.148,271.982 339.791,268.624 334.755,268.624ZM326.361,302.198L309.574,302.198L309.574,285.411L326.361,285.411L326.361,302.198Z" style="fill:rgb(255,180,0);fill-rule:nonzero;"/>
                <path d="M401.902,268.624L368.328,268.624C363.292,268.624 359.935,271.981 359.935,277.017L359.935,310.591C359.935,315.627 363.292,318.984 368.328,318.984L401.902,318.984C406.938,318.984 410.295,315.627 410.295,310.591L410.295,277.017C410.296,271.982 406.938,268.624 401.902,268.624ZM393.509,302.198L376.722,302.198L376.722,285.411L393.509,285.411L393.509,302.198Z" style="fill:rgb(255,180,0);fill-rule:nonzero;"/>
                <path d="M267.607,335.772L234.033,335.772C228.997,335.772 225.64,339.129 225.64,344.165L225.64,377.739C225.64,382.775 228.997,386.132 234.033,386.132L267.607,386.132C272.643,386.132 276,382.775 276,377.739L276,344.165C276.001,339.129 272.643,335.772 267.607,335.772ZM259.214,369.345L242.427,369.345L242.427,352.558L259.214,352.558L259.214,369.345Z" style="fill:rgb(255,180,0);fill-rule:nonzero;"/>
                <path d="M334.755,335.772L301.181,335.772C296.145,335.772 292.788,339.129 292.788,344.165L292.788,377.739C292.788,382.775 296.145,386.132 301.181,386.132L334.755,386.132C339.791,386.132 343.148,382.775 343.148,377.739L343.148,344.165C343.148,339.129 339.791,335.772 334.755,335.772ZM326.361,369.345L309.574,369.345L309.574,352.558L326.361,352.558L326.361,369.345Z" style="fill:rgb(255,180,0);fill-rule:nonzero;"/>
                <path d="M401.902,335.772L368.328,335.772C363.292,335.772 359.935,339.129 359.935,344.165L359.935,377.739C359.935,382.775 363.292,386.132 368.328,386.132L401.902,386.132C406.938,386.132 410.295,382.775 410.295,377.739L410.295,344.165C410.296,339.129 406.938,335.772 401.902,335.772ZM393.509,369.345L376.722,369.345L376.722,352.558L393.509,352.558L393.509,369.345Z" style="fill:rgb(255,180,0);fill-rule:nonzero;"/>
                <path d="M267.607,402.919L234.033,402.919C228.997,402.919 225.64,406.276 225.64,411.312L225.64,444.886C225.64,449.922 228.997,453.279 234.033,453.279L267.607,453.279C272.643,453.279 276,449.922 276,444.886L276,411.312C276.001,406.277 272.643,402.919 267.607,402.919ZM259.214,436.493L242.427,436.493L242.427,419.706L259.214,419.706L259.214,436.493Z" style="fill:rgb(255,180,0);fill-rule:nonzero;"/>
                <path d="M334.755,402.919L301.181,402.919C296.145,402.919 292.788,406.276 292.788,411.312L292.788,444.886C292.788,449.922 296.145,453.279 301.181,453.279L334.755,453.279C339.791,453.279 343.148,449.922 343.148,444.886L343.148,411.312C343.148,406.277 339.791,402.919 334.755,402.919ZM326.361,436.493L309.574,436.493L309.574,419.706L326.361,419.706L326.361,436.493Z" style="fill:rgb(255,180,0);fill-rule:nonzero;"/>
                <path d="M401.902,402.919L368.328,402.919C363.292,402.919 359.935,406.276 359.935,411.312L359.935,444.886C359.935,449.922 363.292,453.279 368.328,453.279L401.902,453.279C406.938,453.279 410.295,449.922 410.295,444.886L410.295,411.312C410.296,406.277 406.938,402.919 401.902,402.919ZM393.509,436.493L376.722,436.493L376.722,419.706L393.509,419.706L393.509,436.493Z" style="fill:rgb(255,180,0);fill-rule:nonzero;"/>
            </g>
        </g>
    </g>
</svg>
