<?xml version="1.0" encoding="iso-8859-1"?>
<!-- Generator: Adobe Illustrator 19.0.0, SVG Export Plug-In . SVG Version: 6.00 Build 0)  -->
<svg version="1.1" id="Layer_1" xmlns="http://www.w3.org/2000/svg" xmlns:xlink="http://www.w3.org/1999/xlink" x="0px" y="0px"
	 viewBox="0 0 512 512" style="enable-background:new 0 0 512 512;" xml:space="preserve">
<g>
	<g>
		<path d="M511.995,120.026c0-1.122-0.178-2.255-0.562-3.357c-1.428-4.098-5.292-6.844-9.631-6.844H10.199
			c-4.339,0-8.203,2.746-9.631,6.844c-0.383,1.099-0.562,2.231-0.562,3.35L0,120.025v271.951c0,5.632,4.566,10.199,10.199,10.199
			h491.602c5.633,0,10.199-4.567,10.199-10.199V120.025L511.995,120.026z M472.53,130.224L256,301.975L39.47,130.224H472.53z
			 M20.398,141.133l125.57,99.601L20.398,366.305V141.133z M491.602,366.305l-84.018-84.018c-3.983-3.982-10.441-3.982-14.425,0
			c-3.983,3.983-3.983,10.441,0,14.425l85.064,85.063H33.777l128.279-128.279l87.606,69.489c1.856,1.472,4.097,2.208,6.338,2.208
			c2.241,0,4.483-0.736,6.338-2.208l229.264-181.852V366.305z"/>
	</g>
</g>
<g>
	<g>
		<path d="M384.123,258.827l-2.32-2.32c-3.983-3.984-10.441-3.984-14.424-0.002c-3.984,3.983-3.984,10.441-0.001,14.425l2.32,2.32
			c1.992,1.992,4.602,2.988,7.213,2.988c2.61,0,5.22-0.996,7.211-2.986C388.106,269.269,388.106,262.811,384.123,258.827z"/>
	</g>
</g>
<g>
</g>
<g>
</g>
<g>
</g>
<g>
</g>
<g>
</g>
<g>
</g>
<g>
</g>
<g>
</g>
<g>
</g>
<g>
</g>
<g>
</g>
<g>
</g>
<g>
</g>
<g>
</g>
<g>
</g>
</svg>
