<?xml version="1.0" encoding="UTF-8" standalone="no"?>
<!DOCTYPE svg PUBLIC "-//W3C//DTD SVG 1.1//EN" "http://www.w3.org/Graphics/SVG/1.1/DTD/svg11.dtd">
<svg width="100%" height="100%" viewBox="0 0 512 293" version="1.1" xmlns="http://www.w3.org/2000/svg" xmlns:xlink="http://www.w3.org/1999/xlink" xml:space="preserve" xmlns:serif="http://www.serif.com/" style="fill-rule:evenodd;clip-rule:evenodd;stroke-linejoin:round;stroke-miterlimit:2;">
    <g transform="matrix(1,0,0,1,0,-109.825)">
        <g>
            <g>
                <g>
                    <path d="M511.995,120.026C511.995,118.904 511.817,117.771 511.433,116.669C510.005,112.571 506.141,109.825 501.802,109.825L10.199,109.825C5.86,109.825 1.996,112.571 0.568,116.669C0.185,117.768 0.006,118.9 0.006,120.019L0,120.025L0,391.976C0,397.608 4.566,402.175 10.199,402.175L501.801,402.175C507.434,402.175 512,397.608 512,391.976L512,120.025L511.995,120.026ZM472.53,130.224L256,301.975L39.47,130.224L472.53,130.224ZM20.398,141.133L145.968,240.734L20.398,366.305L20.398,141.133ZM491.602,366.305L407.584,282.287C403.601,278.305 397.143,278.305 393.159,282.287C389.176,286.27 389.176,292.728 393.159,296.712L478.223,381.775L33.777,381.775L162.056,253.496L249.662,322.985C251.518,324.457 253.759,325.193 256,325.193C258.241,325.193 260.483,324.457 262.338,322.985L491.602,141.133L491.602,366.305Z" style="fill:rgb(255,180,0);fill-rule:nonzero;"/>
                </g>
            </g>
            <g>
                <g>
                    <path d="M384.123,258.827L381.803,256.507C377.82,252.523 371.362,252.523 367.379,256.505C363.395,260.488 363.395,266.946 367.378,270.93L369.698,273.25C371.69,275.242 374.3,276.238 376.911,276.238C379.521,276.238 382.131,275.242 384.122,273.252C388.106,269.269 388.106,262.811 384.123,258.827Z" style="fill:rgb(255,180,0);fill-rule:nonzero;"/>
                </g>
            </g>
        </g>
    </g>
</svg>
