<?xml version="1.0" encoding="UTF-8" standalone="no"?>
<!DOCTYPE svg PUBLIC "-//W3C//DTD SVG 1.1//EN" "http://www.w3.org/Graphics/SVG/1.1/DTD/svg11.dtd">
<svg width="100%" height="100%" viewBox="0 0 320 300" version="1.1" xmlns="http://www.w3.org/2000/svg" xmlns:xlink="http://www.w3.org/1999/xlink" xml:space="preserve" xmlns:serif="http://www.serif.com/" style="fill-rule:evenodd;clip-rule:evenodd;stroke-linejoin:round;stroke-miterlimit:2;">
    <g id="Artboard1" transform="matrix(0.820513,0,0,0.635593,0,0)">
        <rect x="0" y="0" width="390" height="472" style="fill:none;"/>
        <clipPath id="_clip1">
            <rect x="0" y="0" width="390" height="472"/>
        </clipPath>
        <g clip-path="url(#_clip1)">
            <g>
                <g transform="matrix(0.309135,0.425751,-0.969729,1.17342,-16.069,-31.571)">
                    <rect x="52.961" y="-15.161" width="21.944" height="49.873"/>
                </g>
                <g transform="matrix(0.309135,0.425751,-0.969729,1.17342,-1.43701,-12.7922)">
                    <rect x="52.961" y="-15.161" width="21.944" height="49.873"/>
                </g>
                <g transform="matrix(0.309135,0.425751,-1.6358,1.97941,24.751,-6.17271)">
                    <rect x="52.961" y="-15.161" width="21.944" height="49.873"/>
                </g>
                <g transform="matrix(0.309135,0.425751,-2.41366,2.92065,53.217,-2.91768)">
                    <rect x="52.961" y="-15.161" width="21.944" height="49.873"/>
                </g>
                <g transform="matrix(0.309135,0.425751,-8.37649,10.136,79.318,3.80727)">
                    <rect x="52.961" y="-15.161" width="21.944" height="49.873"/>
                </g>
                <g transform="matrix(0.309135,0.425751,-8.37649,10.136,98.6256,18.1444)">
                    <rect x="52.961" y="-15.161" width="21.944" height="49.873"/>
                </g>
                <g transform="matrix(0.309135,0.425751,-8.37649,10.136,117.933,32.4816)">
                    <rect x="52.961" y="-15.161" width="21.944" height="49.873"/>
                </g>
                <g transform="matrix(0.309135,0.425751,-8.37649,10.136,137.241,46.8187)">
                    <rect x="52.961" y="-15.161" width="21.944" height="49.873"/>
                </g>
                <g transform="matrix(0.309135,0.425751,-8.37649,10.136,157.171,61.6184)">
                    <rect x="52.961" y="-15.161" width="21.944" height="49.873"/>
                </g>
                <g transform="matrix(0.309135,0.425751,-8.37649,10.136,176.479,75.9555)">
                    <rect x="52.961" y="-15.161" width="21.944" height="49.873"/>
                </g>
                <g transform="matrix(0.309135,0.425751,-8.37649,10.136,196.409,90.7552)">
                    <rect x="52.961" y="-15.161" width="21.944" height="49.873"/>
                </g>
                <g transform="matrix(0.309135,0.425751,-8.37649,10.136,215.406,104.861)">
                    <rect x="52.961" y="-15.161" width="21.944" height="49.873"/>
                </g>
                <g transform="matrix(0.309135,0.425751,-8.37649,10.136,235.025,119.43)">
                    <rect x="52.961" y="-15.161" width="21.944" height="49.873"/>
                </g>
                <g transform="matrix(0.309135,0.425751,-8.37649,10.136,254.644,133.998)">
                    <rect x="52.961" y="-15.161" width="21.944" height="49.873"/>
                </g>
                <g transform="matrix(0.309135,0.425751,-8.37649,10.136,274.263,148.566)">
                    <rect x="52.961" y="-15.161" width="21.944" height="49.873"/>
                </g>
                <g transform="matrix(0.309135,0.425751,-8.37649,10.136,293.259,162.672)">
                    <rect x="52.961" y="-15.161" width="21.944" height="49.873"/>
                </g>
                <g transform="matrix(0.309135,0.425751,-8.37649,10.136,313.189,177.472)">
                    <rect x="52.961" y="-15.161" width="21.944" height="49.873"/>
                </g>
                <g transform="matrix(0.309135,0.425751,-8.37649,10.136,332.186,191.578)">
                    <rect x="52.961" y="-15.161" width="21.944" height="49.873"/>
                </g>
                <g transform="matrix(0.309135,0.425751,-8.37649,10.136,351.493,205.915)">
                    <rect x="52.961" y="-15.161" width="21.944" height="49.873"/>
                </g>
                <g transform="matrix(0.309135,0.425751,-8.37649,10.136,371.112,220.483)">
                    <rect x="52.961" y="-15.161" width="21.944" height="49.873"/>
                </g>
                <g transform="matrix(0.309135,0.425751,-8.37649,10.136,390.42,234.821)">
                    <rect x="52.961" y="-15.161" width="21.944" height="49.873"/>
                </g>
                <g transform="matrix(0.309135,0.425751,-8.37649,10.136,410.35,249.62)">
                    <rect x="52.961" y="-15.161" width="21.944" height="49.873"/>
                </g>
                <g transform="matrix(0.309135,0.425751,-8.37649,10.136,429.347,263.726)">
                    <rect x="52.961" y="-15.161" width="21.944" height="49.873"/>
                </g>
                <g transform="matrix(0.309135,0.425751,-8.37649,10.136,449.277,278.526)">
                    <rect x="52.961" y="-15.161" width="21.944" height="49.873"/>
                </g>
                <g transform="matrix(0.309135,0.425751,-8.37649,10.136,468.585,292.863)">
                    <rect x="52.961" y="-15.161" width="21.944" height="49.873"/>
                </g>
                <g transform="matrix(0.309135,0.425751,-0.969729,1.17342,378.164,439.582)">
                    <rect x="52.961" y="-15.161" width="21.944" height="49.873"/>
                </g>
            </g>
        </g>
    </g>
</svg>
